<?xml version="1.0" standalone="no"?>
<!DOCTYPE svg PUBLIC "-//W3C//DTD SVG 20010904//EN"
 "http://www.w3.org/TR/2001/REC-SVG-20010904/DTD/svg10.dtd">
<svg version="1.0" xmlns="http://www.w3.org/2000/svg"
 width="512.000000pt" height="512.000000pt" viewBox="0 0 512.000000 512.000000"
 preserveAspectRatio="xMidYMid meet">

<g transform="translate(0.000000,512.000000) scale(0.100000,-0.100000)"
fill="#000000" stroke="none">
<path d="M366 4464 c-255 -62 -415 -322 -351 -569 24 -89 72 -170 137 -231 64
-58 101 -80 188 -110 53 -18 124 -19 2225 -19 l2170 0 59 23 c88 33 135 64
193 124 58 62 96 132 118 215 65 248 -98 507 -356 568 -94 22 -4291 21 -4383
-1z"/>
<path d="M353 3015 c-122 -33 -238 -123 -295 -231 -145 -271 0 -601 299 -679
50 -13 333 -15 2203 -15 2350 0 2199 -4 2314 58 74 39 157 126 195 203 132
269 -15 588 -306 664 -84 22 -4329 21 -4410 0z"/>
<path d="M404 1579 c-181 -23 -340 -169 -389 -354 -65 -252 102 -515 362 -570
102 -22 4264 -22 4366 0 260 55 427 318 362 570 -50 190 -207 330 -398 355
-88 11 -4215 11 -4303 -1z"/>
</g>
</svg>
